<svg id="Layer_1_copy_2" data-name="Layer 1 copy 2" xmlns="http://www.w3.org/2000/svg" viewBox="0 0 1952.88 1996.46"><defs><style>.cls-1{fill:#fff;}</style></defs><path d="M599,855.8l.11,0a.91.91,0,0,1,0,.17Z" transform="translate(-23.56 -1.07)"/><path class="cls-1" d="M1859.41,1268l.08,0a.53.53,0,0,0,0,.12Z" transform="translate(-23.56 -1.07)"/><path class="cls-1" d="M1769.78,1442.72c-1-1.1-2.08-2.2-3.1-3.33C1767.75,1440.46,1768.79,1441.58,1769.78,1442.72Z" transform="translate(-23.56 -1.07)"/><path d="M599,855.8a8.65,8.65,0,0,1-.87.25s-.11-.18-.17-.27c.37,0,.74.08,1.12.14Z" transform="translate(-23.56 -1.07)"/><path class="cls-1" d="M1857.82,1269.5l1.7-1.42-.11-.1c.18,1.25-.3,1.8-1.59,1.45Z" transform="translate(-23.56 -1.07)"/><path class="cls-1" d="M1857.82,1269.43c.1.44.19.87,0,.21.06.73,0,.33,0-.1A.31.31,0,0,1,1857.82,1269.43Z" transform="translate(-23.56 -1.07)"/><path class="cls-1" d="M1976.44,1575.57v47.64c-1.18,1.57-.87,3.44-1,5.21-.18,2.34-.13,4.7-.44,7a303.66,303.66,0,0,1-11.62,52.21,257.45,257.45,0,0,1-14.79,37.16c-.43.84-.54,2.22-2.22,1.72a86.24,86.24,0,0,0-1.34-18.83c-3.79-18.14-13.3-32.13-29.76-41.09a68.39,68.39,0,0,0-14.52-5.84c-8.76-2.42-16.4-.57-22.89,5.85a45.37,45.37,0,0,0-7.66,10.44,95,95,0,0,0-7.54,18.5c-5.47,18.06-8,36.63-9.57,55.35-.91,11-1.34,22-1.79,33a128,128,0,0,0,0,17.3c1.45,15.13,2,30.23.71,45.39a161.1,161.1,0,0,1-5.72,31.9c-3,10.09-7.23,19.62-13.65,28.07a56.07,56.07,0,0,1-26.12,19.41,14.82,14.82,0,0,1-3,.4,4.27,4.27,0,0,1,.2-.88c.5-.75,1-1.48,1.55-2.2a43.43,43.43,0,0,0,8.66-29.48,62.37,62.37,0,0,0-10.3-29.86c-2.94-4.57-7.35-7.36-12.51-9a42.69,42.69,0,0,0-15-1.52c-10,.51-19.58,3.06-29,6.36-22.24,7.82-43,18.62-62.78,31.37a491.22,491.22,0,0,1-63.54,34.79c-44,20-89.61,34-137.88,38.75a332.1,332.1,0,0,1-58.4.44c-18.17-1.41-36.34-2.83-54.54-3.82-25.78-1.42-51.59-1.89-77.4-1.83-27.44.07-54.87.62-82.26,2.41-20,1.32-39.94,3-59.83,5.43a540.55,540.55,0,0,0-58.08,10c-19,4.48-37.63,10.06-54.87,19.51a14.49,14.49,0,0,1-2.43.64c4.39-5.1,9.07-8.47,13.84-11.72a183,183,0,0,1,29.47-15.94c23.5-10.38,48-17.76,72.87-23.94,20.66-5.14,41.53-9.31,62.53-12.75q22.43-3.67,45-6.55c14.67-1.87,29.39-3.37,44.12-4.78,15.26-1.47,30.54-2.84,45.84-3.91,18.19-1.27,36.39-2.22,54.59-3.22q30.29-1.67,60.37-5.43c17.55-2.2,35-5,52.24-8.94,16.37-3.73,32.48-8.36,47.91-15.07,10.13-4.41,19.79-9.63,28.42-16.61a62.89,62.89,0,0,0,13.52-14.67,43.77,43.77,0,0,0,6-34.72c-2.62-11.53-8.32-21.46-15.87-30.41-7-8.31-9.75-18-9.1-28.67s5-20.22,11.44-28.74c.19-.25.58-.35,1.22-.72.41,1.42.81,2.75,1.18,4.09,5.89,21.16,19.38,34.07,41.19,38,10.63,1.89,21.22,1.2,31.76-.72,17.51-3.18,34.12-9.12,50.1-16.8a127,127,0,0,0,14.45-8.48,53.13,53.13,0,0,0,13.31-12.6c7.34-9.79,9.76-20.69,7.59-32.71-1.57-8.66-5.08-16.52-9.48-24a137.82,137.82,0,0,0-14.61-20.12c-8.36-9.73-17.75-18-27-26.28-8.69-7.78-17.21-15.51-24.56-24.39A62.59,62.59,0,0,1,1668.9,1567v-.28a72.37,72.37,0,0,1,62.22-71.65,30.8,30.8,0,0,1,11.12.43h.06a40.35,40.35,0,0,1,23.46,15.18,57.15,57.15,0,0,1,5.48,8.68c4.78,9.27,7,19.28,7.93,29.6,0,.58.34,1.5-1,1.54-.83-1.25-1.64-2.65-2.61-3.92-3.38-4.46-6.64-9-10.25-13.26l-.11-.12a17.38,17.38,0,0,0-24.26-2c-.89.74-1.8,1.53-2.7,2.36-15.24,14-14.57,36.47-2.11,50.17a55.14,55.14,0,0,0,91-42.76v0a121.61,121.61,0,0,0-7.91-27.53c-1.9-4.63-4-9.14-6.32-13.52-9.8-18.75-22.71-35.91-37.1-51.36l0,0a208.54,208.54,0,0,0-26.15-20c-35.1-22.58-72.62-25.66-113.56-26.38-74.08-1.31-135.73,21-199.44,57.37-15.1,8.62-30.14,18-41.52,31.16-6.63,7.66-12.09,18.13-8.54,27.62,4.54,12.15,20.29,14.93,33.26,14.89,28.39-.09,55.92-10,82.6-11.86a185.85,185.85,0,0,1-20.33,9.73,284.41,284.41,0,0,1-83.92,19.78,317.57,317.57,0,0,1-57.85-.39,321.14,321.14,0,0,1-50.53-9.1c-13.12-3.46-26.39-5.9-40-6.24-11.8-.29-23.45.71-34.8,4-20.88,6.15-37.35,18.44-49.88,36.11-10.06,14.17-16.59,29.91-20.52,46.78-.57,2.42-1.1,4.85-1.7,7.54-1.12-.27-2-.45-2.81-.66-5.42-1.38-10.8-2.92-16.25-4.1-12-2.62-24.22-3.89-36.57-2.78a49.48,49.48,0,0,0-15.18,3.68c-9.4,4-15.49,11-17.84,21-2.07,8.88-.31,16.81,5.87,23.65a43,43,0,0,0,9.65,7.81,76.78,76.78,0,0,0,12.1,5.88c-115.77-42.51-210,33.35-121.24,57.93,89.43,24.77,176.64-47,176.64-47a6,6,0,0,1,0,1.38c-.45,1.37-.88,2.75-1.45,4.06-28.58,65.9-93.63,115.82-167,121.43-54.52,4.16-100.44-20.9-147.59-43.1-2.46-1.43-212.69-123-190.81-40.91,22,82.54,125.18,127.8,125.18,127.8-1.46,0-2.68.1-3.87,0-4.32-.39-8.64-.72-12.93-1.3-77.51-10.66-147.19-48-207.51-96.79-29.88-24.16-58-49.74-87.26-73.24l48.8,112.31c-37.29-61.31-79.13-110.53-106.51-140a177.26,177.26,0,0,0-82.18-50.33l-.56-.16a286.13,286.13,0,0,0-57.48-10,131.63,131.63,0,0,0-20.54,0c-14.72,1.34-27.45-2.72-38.38-12.55a62.39,62.39,0,0,1-14.2-19.61,108.14,108.14,0,0,1-8.62-26.69c-4.42-22.69-4.34-45.54-2.54-68.47a20.5,20.5,0,0,0-.28-5.36c-1.24-6.54-5.43-10.89-11.06-13.91a56.14,56.14,0,0,0-28.2-6.33c-6.86.16-12,3.71-15,9.94a38,38,0,0,0-2.53,7.68c-1.53,6.58-1.33,13.28-.68,19.93a184.19,184.19,0,0,0,5.91,30.23,73.91,73.91,0,0,0,9.58,21.08,140.69,140.69,0,0,0,17.36,21.42,214.41,214.41,0,0,0,27.95,23.9,113.86,113.86,0,0,1,16,13.75c10.84,11.39,18.1,24.64,20.91,40.21a87.47,87.47,0,0,1,.13,29.1c-2.34,15.1-7.45,29.33-14,43.07a12.8,12.8,0,0,1-1.91,2.19c.14-1.56.13-2.28.26-3a114.59,114.59,0,0,0,1-35.55,100.44,100.44,0,0,0-28.49-59.39c-10.86-11.1-23.64-19.46-37.59-26.12a208.1,208.1,0,0,0-40.29-14,89.87,89.87,0,0,1-16.36-5.56c-15.44-7.08-26.6-18.35-33.06-34.12a83.68,83.68,0,0,1-5.88-24.64c-.24-2.9-.58-5.75-2.09-8.31v-10.83c1.52-1.75,1.73-3.93,1.89-6.08,1.57-22.11,7-43.4,13.78-64.38,9.53-29.4,21.87-57.65,36-85.12,6.75-13.16,14-26.08,21.11-39,2.71-4.89,5.79-9.57,8.83-14.25,7.13-11,13-22.47,16.34-35.18a60.05,60.05,0,0,0,1.91-21.43c-1.1-11.25-7.11-22.18-16.9-28.12a8.32,8.32,0,0,0-4.68-1.53c-3.58.23-5.58,4.18-6.59,7.62-4.58,15.57-2.64,31.78-.92,47.63a26,26,0,0,0,1.28,6.34c2.69,7.14,2.13,14.16-.42,21.15-3.22,8.83-8.8,16-16.25,23.5a25.82,25.82,0,0,1,.92-3.3c4.77-9.65,3.58-18.86-2-27.77a58.73,58.73,0,0,0-13.59-14.58c-2.11-1.69-4.36-3.22-6.52-4.85-8.94-6.73-14.09-15.68-15.93-26.71-1.88-11.32-.19-22.33,2.93-33.14a158.51,158.51,0,0,1,33.4-61.25c15.55-17.73,33.16-33.16,52.09-47.13,28.85-21.3,60-38.66,92.58-53.54,18.54-8.47,37.47-16,56.67-22.82A317.4,317.4,0,0,0,315.9,995.2a113.18,113.18,0,0,0,19.36-11.85,38.45,38.45,0,0,0,8-8c4.89-6.94,4.53-13.48-1.5-19.5a49.39,49.39,0,0,0-8.56-6.55c-5.67-3.57-11.89-6-18.19-8.25a280.54,280.54,0,0,0-41.32-10.72c-7.08-1.36-14.22-2.36-21.34-3.55a7.84,7.84,0,0,1-1.43-.51c-.37-1.64,1-1.82,1.83-2.25A195.1,195.1,0,0,1,278,912.93a400.36,400.36,0,0,1,60-16.28c16.12-3.18,32.35-5.58,48.68-7.33,16.68-1.78,33.42-2.92,50.2-3.66,26-1.16,52-.89,77.94.27,14.24.64,28.46,1.69,42.67,2.82q19.15,1.51,38.25,3.64,18.55,2.05,37,4.71c13,1.85,26,4,39,6,5.34.85,10.65,1.9,16,2.72a43.72,43.72,0,0,0,16.67-.49c10.46-2.42,15.75-9,15.74-19.59a45.73,45.73,0,0,0-4.52-19.35c-2.76-5.94-7.41-10.12-13.1-13.23-6.6-3.6-13.76-5.32-21.13-6.34-13.16-1.81-26.28-.94-39.4.6-14.5,1.71-28.72,4.84-42.87,8.32,0-.47-.08-1,.16-1.25a16.83,16.83,0,0,1,2.71-1.77,195.7,195.7,0,0,1,68.17-23.4c45.94-6.73,87.71,4.06,125.81,30.07,19.37,13.22,36.1,29.34,51,47.37a490.68,490.68,0,0,0,33.27,37,262.41,262.41,0,0,0,39.14,32.41c12.85,8.51,26.45,15.48,41.43,19.49,14.74,3.95,29.55,4.6,44.37.45a67.84,67.84,0,0,0,25.29-13.06,38.66,38.66,0,0,0,5.41-5.29,11.73,11.73,0,0,0,.83-14.12,24.17,24.17,0,0,0-5.81-6.32,76.36,76.36,0,0,0-11.13-6.6c-7-3.42-14.44-5.6-21.93-7.62a6.82,6.82,0,0,1-2.72-1.5,69,69,0,0,1,10.63-.33,287.65,287.65,0,0,1,90.88,18,259,259,0,0,1,66.6,36.66,160.34,160.34,0,0,0,23.14,15,91.51,91.51,0,0,0,26.38,9.43c17.7,3.1,33.69-.56,47.68-12.07q2.08-1.73,4-3.62c8.46-8.28,14.46-17.77,16.16-29.85,1.55-11,2.13-21.89-.61-32.77-3.28-13-10.32-23.37-21.49-30.75a68.67,68.67,0,0,0-11.9-6.35,106.28,106.28,0,0,0-46.63-7.48,27.32,27.32,0,0,0-9.42,2.22c-5.55,2.41-8.37,6.57-8.23,12.71a23.72,23.72,0,0,0,1.89,9,76.37,76.37,0,0,0,5.2,10.68c3.26,5.18,7,10.08,10.52,15.07.93,1.3,2,2.51,2.93,3.68-.64,1.45-1.67,1-2.34.75-4.68-1.88-9.45-3.6-13.94-5.86-14.65-7.36-27.4-17.36-39.16-28.68-17.14-16.5-31.37-35.32-43.89-55.48-15.76-25.37-28.42-52.26-39.18-80.07-2.28-5.88-4.47-11.79-6.85-18.07a12.81,12.81,0,0,0-2.67,1.66,21.71,21.71,0,0,0-5.63,13.19,50.46,50.46,0,0,0,1.74,19.29c1.44,5,3.11,10,4.73,15.09-1.55,1-2.71-.26-3.82-.83-21.91-11.36-42.05-25.25-59.79-42.49-19.56-19-33.92-42.34-39.8-69.16-1.2-5.43-2.06-11-4.31-16.07s-6.17-9.76-11.49-11.38c-12.1-3.71-24.16,6-30.62,15.35-8.25,11.91-8.3,23.76-.76,36.18,20.5,33.81,59.16,53.95,92.92,71.93a32.54,32.54,0,0,0,4.44,2c18.57,6.46,31,19.18,38.21,37.29,4.93,12.46,6.26,25.5,5.68,38.79,0,.7-.24,1.39-.57,3.27-.5-1.73-.75-2.4-.88-3.08-2.72-13.86-10.21-24.45-22-32.05-8.79-5.65-18.52-8.82-28.69-10.75-15.92-3-32-2.89-48-1.6-21.09,1.71-41.41-1.06-60.6-10.35a109.26,109.26,0,0,1-38-30.67A164.11,164.11,0,0,1,813,710.78c-2.63-16.81-3.27-33.74-3.18-50.73.1-16.84.49-33.78,3.21-50.41s6.73-34.12,1.82-50.84c-5.53-18.81-21.68-33-39.61-40.95-26.25-11.62-67.16-20-95.23-11.42-22.37,6.8-34.1,28.61-38.2,50.35-2.88,15.29,1,32.35-2.4,47-9.52-3.84-18.64-21.71-23.4-30.59a122.11,122.11,0,0,1-12.62-36.27,101.73,101.73,0,0,1,6-56.84,146.94,146.94,0,0,1,34.17-51.48c15-14.5,32.6-24.29,53.18-28.44a76.32,76.32,0,0,1,18.83-1.63,24,24,0,0,0,11.07-2c6.17-2.73,9.27-7.58,8.36-14.24a36.9,36.9,0,0,0-10.74-22c-4.84-4.72-11-6.7-17.66-7.33-9.64-.9-19.07.41-28.4,2.82a188.17,188.17,0,0,0-31.47,11.43c-1.3.6-2.61,1.16-4,1.79-1-1.48-.48-2.86-.2-4.17,8.19-38.06,29.41-66.07,64.52-83.23a142,142,0,0,1,45.55-13.07c7.88-1,15.81-1.46,23.72-2.16,12.23-1.08,24.41-2.57,36.12-6.48a118.69,118.69,0,0,0,11.9-5.11,20.15,20.15,0,0,0,3.63-2.36c8.68-6.48,11.08-14.65,7.29-24.81-2.51-6.71-6.74-12.31-11.51-17.54-1.8-2-3.68-3.88-6.31-6.63,2.1.52,3.11.74,4.1,1a291.81,291.81,0,0,0,36.91,8.36c12.34,1.87,24.73,3,37.21,1.61a56.64,56.64,0,0,0,16.73-4.19c11.42-5,17.21-13.81,17.7-26.16a41.4,41.4,0,0,0-.35-7.55c-1.41-9.55-6.47-16.67-14.77-21.52a57.49,57.49,0,0,0-19.33-6.68,133.37,133.37,0,0,0-29.12-1.82,327.07,327.07,0,0,0-46.17,5.54q-20.74,3.93-41,9.69A131.55,131.55,0,0,1,758,165.53a195.9,195.9,0,0,1-43.77,0c-35.2-4-67.11-16.32-95.42-37.73a202.78,202.78,0,0,1-20.42-17.74c-1-1-1.93-2.1-2.94-3.21,1.67-1,2.5.35,3.46.93a209.71,209.71,0,0,0,41,19.34c22.63,7.83,45.86,11.26,69.76,9.24a144.46,144.46,0,0,0,55.65-16.5A167.8,167.8,0,0,0,791.11,103,279.23,279.23,0,0,1,833,75.22,163,163,0,0,1,871.7,60.16c13.13-3.11,26.36-4,39.73-1.74C920.77,60,928.68,64,937.18,68c2.17-11.93,1.63-23.81,5-35.72a70.75,70.75,0,0,1,7.34-17.39A44.42,44.42,0,0,1,959.56,3a34.22,34.22,0,0,1,2.94-1.9,32.61,32.61,0,0,1,0,4.15c-1.78,12.51.53,24.44,5.09,36a99.31,99.31,0,0,0,18.35,29.19,158.46,158.46,0,0,0,29.74,25.87c16.9,11.58,35.15,20.58,54.11,28.2,25.33,10.17,51.47,17.71,78,23.8,24.09,5.52,48.39,10,72.9,13.22,14.3,1.89,28.68,3.3,42.94,5.45a233.79,233.79,0,0,1,27,5.67c71.86,19.63,137.85,58.86,188,114.11-29.27-20.13-58.39-37.28-92.33-48.53a355.33,355.33,0,0,0-77.15-16c-5.17-.51-10.37-.76-15.55-1.13a9,9,0,0,0,3.79,2c4.18,1.07,8.37,2.17,12.51,3.43,15.55,4.73,30.77,10.28,45.09,18.07A99.05,99.05,0,0,1,1373.32,257c4.92,4.33,9.18,9.17,11.9,15.23a15.69,15.69,0,0,0,1.24,1.92c1.27-.09,2.52-.13,3.75-.27,3.76-.43,7.51-1,11.28-1.34a134.93,134.93,0,0,1,48.25,4.2,118.33,118.33,0,0,1,33.46,14.55,1.58,1.58,0,0,0,2.68-.55,33.6,33.6,0,0,0,.81-34.13,5.13,5.13,0,0,1-.87-3.58c1.82-.8,2.93,0,4.77.73a251,251,0,0,1,39.35,19.17c31.41,18.75,58.2,42.54,79.14,72.68a228.71,228.71,0,0,1,37.09,89.26c.74,3.9,1.33,7.82,2,11.74a5.13,5.13,0,0,1-.2,1.29c-1.74.23-2.85-1.08-4.09-1.89a598.48,598.48,0,0,0-57.17-33c-28.36-14.38-57.58-26.66-88.17-35.52a322.43,322.43,0,0,0-55.08-11.15c-23-2.47-45.77-1.67-68.27,4-1.57.4-3.13.86-4.68,1.33a6.32,6.32,0,0,0-1.15.71c-.82,1.54-.27,3.31,0,5.05,2.85,18.25,11.1,33.79,23.77,47.07,10.88,11.4,23.93,19.65,38.3,25.91,14.8,6.46,30.32,10.4,46.22,13,1.37.22,2.73.56,4,.82.23,1.45-.76,1.24-1.27,1.51a7.25,7.25,0,0,1-1.52.55,113.48,113.48,0,0,1-22.95,3.62c-26.19,1.41-51.34-3.61-75.85-12.41-23.56-8.45-45.5-20.1-66.44-33.7a406.55,406.55,0,0,1-36.77-26.74,88.55,88.55,0,0,0-40.89-18.62,46.68,46.68,0,0,0-18.28.18,35.64,35.64,0,0,0-20.81,12.76,55.77,55.77,0,0,0-11.77,25.83c-1.43,8.06.67,15.38,5.74,21.83a46.5,46.5,0,0,0,13.67,11.32,98.61,98.61,0,0,0,19.86,8.5,217,217,0,0,0,36.46,7.81,360.86,360.86,0,0,0,47.49,3.38c.64,0,1.28.11,1.9.16,0,1.58-1,1.65-1.79,2a123.75,123.75,0,0,1-19.85,5.25c-6.36,1.28-12.77,2.31-19.16,3.47a14.89,14.89,0,0,0-1.88.57c-.35,1.75,1,2,1.8,2.42,7.42,3.7,14.75,7.64,22.36,10.89,19.63,8.41,40.12,14.11,61,18.37a417.49,417.49,0,0,0,55.22,7.37c10.44.72,20.91.87,31.38,1.24,1.79.07,3.59,0,5.23,0,.83,1.38-.1,1.87-.75,2.38a158.74,158.74,0,0,1-21.31,13.86c-20.82,11.48-43,19.49-66.07,25-28.24,6.74-56.91,9.37-85.91,9-14.63-.17-29.21-1.17-43.75-2.67a28.73,28.73,0,0,1-7.14-1.6c6.34-1.21,12.73-2.29,19.05-3.69a95.89,95.89,0,0,0,21.95-7.52A44.52,44.52,0,0,0,1273,548c6.18-6.33,8.35-13.7,6-22.35a28.81,28.81,0,0,0-15.19-18.75c-7.38-3.77-15.36-5.13-23.53-5.53a146,146,0,0,0-32.86,2.51,247.5,247.5,0,0,0-39.75,10.31,44.14,44.14,0,0,1-20.27,1.94C1131,514.3,1117,507.36,1105.14,496a92.39,92.39,0,0,1-18-23.6c-3.3-6.2-6-12.69-9-19.07-.75-1.6-1.36-3.26-2.15-5.17-.81,2.95-.84,3-.45,5.13a153.3,153.3,0,0,0,5.71,22.53c7.35,21.74,18.49,41.46,32,59.88,16.14,21.93,35.13,41.15,56,58.6,26.52,22.21,55.35,41,85.63,57.65,37.23,20.45,76.06,37.31,115.91,51.92,3.7,1.35,7.43,2.63,11.34,4,.76-1.58,1.41-2.84,2-4.13a178.43,178.43,0,0,1,126.46-103,216.35,216.35,0,0,1,51.64-4.44c3.61.1,7.22.2,10.83.43a6.93,6.93,0,0,0,5-1.6,109.21,109.21,0,0,1,17.36-11,82.59,82.59,0,0,1,25.52-8.61c15.78-2.33,29.68,1.54,41.39,12.61a74.59,74.59,0,0,1,14.61,20c5.7,10.95,9.49,22.6,12.37,34.55a291.45,291.45,0,0,1,6.75,41.63,50.6,50.6,0,0,1,.31,9.35,15.44,15.44,0,0,1-1.42-2.4,250.73,250.73,0,0,0-11-25.87,152.71,152.71,0,0,0-16.41-26.71,70.13,70.13,0,0,0-15-14.69,35.49,35.49,0,0,0-16.48-6.4,20.14,20.14,0,0,0-11.25,1.89c1,1.09,1.91,2.13,2.89,3.07a85.11,85.11,0,0,1,17,22.3c10,19,10.78,38.63,3.3,58.62-4.27,11.44-10.77,21.6-18.53,31a10.42,10.42,0,0,1-1.65,1.16c-.14-1.38-.3-2.36-.33-3.35a83.26,83.26,0,0,0-2.61-19.8c-6-22-20.37-35.12-42.43-40a97.15,97.15,0,0,0-30.15-1.64,201.88,201.88,0,0,0-24.59,3.75c-.68.14-1.33.38-1.88.54-.45,1.2.3,1.4,1,1.67,1.49.63,3,1.23,4.49,1.86a67.24,67.24,0,0,1,16.22,9.67c16.1,13,22.41,30,20.19,50.35a66,66,0,0,1-3.34,15.41c-.61-1.74-1.12-2.86-1.39-4-3.83-16.83-13.52-29.25-28.38-37.77a81.69,81.69,0,0,0-28.58-9.52,109.36,109.36,0,0,0-11.29-1.19,14.07,14.07,0,0,0-14.33,12,21.78,21.78,0,0,0,.67,9.11,40.34,40.34,0,0,0,5.72,12.2c3.64,5.14,7.33,10.29,11.45,15.06,9,10.4,19.21,19.56,29.72,28.4a21.55,21.55,0,0,0,3.08,2.2c23.09,13.44,42.26,31.33,58.75,52.18,22.3,28.19,37.1,60,45.55,94.86,6.16,25.41,8.38,51.21,7.93,77.31-.46,26.45-4,52.49-9.49,78.31-.37,1.76-.68,3.53-1.09,5.66a27.67,27.67,0,0,0,3.76.27,356.59,356.59,0,0,1,46,.19c36.39,2.18,72,8.26,106.14,21.56a196.27,196.27,0,0,1,25,11.61,16.66,16.66,0,0,0,9.21,2.27,93,93,0,0,1,33.6,4.52,60.88,60.88,0,0,1,14.13,6.72c11.88,7.82,18.45,18.94,20.53,32.91,1.75,11.84,0,23.38-2.76,34.84a176.83,176.83,0,0,1-8.63,25.61,317.65,317.65,0,0,1-17.53,35.37c-.65,1.15-.94,2.72-2.54,3.12-.57-2.07.68-3.78,1.26-5.57a81.46,81.46,0,0,0,4.2-28.76c-.65-13.75-5.7-25.58-15.52-35.29a61.35,61.35,0,0,0-17.71-12.27,18.54,18.54,0,0,0,.36,2.7,78.89,78.89,0,0,1,3.64,24,64.14,64.14,0,0,1-16.11,42.59c-8,9.27-17.85,16.22-28.78,21.67a6.54,6.54,0,0,1-1.32.25c0-1.47,1.08-2.21,1.79-3.08a65.47,65.47,0,0,0,11.15-19.06c5.16-14.13,3.87-27.64-4-40.49a65.9,65.9,0,0,0-9.78-12.23,89.39,89.39,0,0,0-18.26-14.09c-.81.68-1.75,1.43-2.65,2.23a49.3,49.3,0,0,1-32.49,12.86,64.11,64.11,0,0,1-26.38-5.05c-4-1.64-7.8-3.72-11.69-5.62-1.28-.63-2.55-1.3-3.91-2a32.78,32.78,0,0,0-3.23,2.1c-11.35,9.37-16.13,21.36-14.17,36a63.69,63.69,0,0,0,6.35,19.46c.67,1.37,1.74,2.65,1.8,4.8a12.91,12.91,0,0,1-2.25-.81,74.9,74.9,0,0,1-20.54-19c-9.26-12.73-12.11-26.74-8.35-42.06.33-1.33.54-2.7.92-4.68-6.61,2.55-12.51,5.08-18.93,6.12a71.54,71.54,0,0,1-18.88.42c-6.47-.66-12.65-2.7-18.73-4.91-.7.57-1.29,1-1.8,1.47-23.56,22.63-50,41.45-78.07,57.94a501.8,501.8,0,0,1-157,59.7,527.29,527.29,0,0,1-64.31,8.66,553,553,0,0,1-66,.67c-16.76-.77-33.45-2.52-50.09-4.84-78.42-11-163.5-35.12-229.18-80.79,2.48,12,5.62,30.3-9.53,35.52-7.76,2.67-16.27.7-24.15-1.58-35-10.1-71.9-25.88-106.5-14.38,12,14.09,29.85,22.15,48,25.68,24.32,4.73,49,.14,73.26,4.1,27.26,4.45,44.82,18.78,49.17,46,2,12.57,1.71,25.16.35,37.77a259.62,259.62,0,0,1-10.25,48.07c-.56,1.82-.76,3.86-2.63,5.73-.58-2.83-1-5.2-1.55-7.58a99.32,99.32,0,0,0-11.84-31.21q-19-31.69-55.73-35.43c-1.9-.2-3.87-1-6,.09.86,4.27,1.82,8.46,2.55,12.7,2.35,13.68,2.23,27.29-1.49,40.76a63.78,63.78,0,0,1-27,37.26,91.55,91.55,0,0,1-27.16,11.82,8.44,8.44,0,0,1-1.93,0c.93-1.79,1.74-3.33,2.53-4.88,5.94-11.56,9.52-23.7,9.41-36.84a58.28,58.28,0,0,0-9.47-31.71c-8.13-12.59-19.46-21.64-32.43-28.82a4.35,4.35,0,0,0-1.37-.15c-.5,1.42-1.07,2.9-1.57,4.4a140.13,140.13,0,0,1-16,33.63,91.27,91.27,0,0,1-17.36,19.94c-15.25,12.81-32.71,17.71-52.43,14.84C708,1415,697,1411,686.51,1405.64c-13-6.61-26.82-14.82-36.31-25.66,11,11.29,66.52-.55,65.95-21.76-.17-6.61-2.95-12.86-6-18.7-30.7-58.1-82.71-74.19-141.68-87,18.11-23.19,54.69-37.63,82.72-44.92-65.9-28.11-149.23-10.88-196.47,43s-52.79,140.83-10.5,198.66c58.88,80.51,187.72,105.49,281.14,102.85,118.72-3.35,232.8-44.48,344-82.52q112.65-38.55,221.56-86.67c3.79-1.68,7.49-3.55,11.16-5.48a777.6,777.6,0,0,1,99.71-43.14,754,754,0,0,1,104.09-29.07q25.74-5.18,51.83-8.2a528.12,528.12,0,0,1,64.82-3.7c40.27.3,79.87,5.45,118.47,17.26a347,347,0,0,1,115.92,61.52c23.5,18.78,45,39.49,63.43,63.37,22,28.62,38.44,60.08,48,95a271.83,271.83,0,0,1,6.76,33.38c.3,2.14.19,4.33.43,6.48C1975.65,1572.1,1976.1,1573.82,1976.44,1575.57Z" transform="translate(-23.56 -1.07)"/></svg>